<svg xmlns="http://www.w3.org/2000/svg" version="1.1" viewBox="0 0 512 512" width="512px" height="512px" style="shape-rendering:geometricPrecision; text-rendering:geometricPrecision; image-rendering:optimizeQuality; fill-rule:evenodd; clip-rule:evenodd" xmlns:xlink="http://www.w3.org/1999/xlink">
	<g>
		<path style="opacity:0.972" fill="current" d="M 233.5,-0.5 C 248.167,-0.5 262.833,-0.5 277.5,-0.5C 373.926,11.1207 444.093,60.1207 488,146.5C 500.701,174.312 508.534,203.312 511.5,233.5C 511.5,248.167 511.5,262.833 511.5,277.5C 499.879,373.926 450.879,444.093 364.5,488C 336.688,500.701 307.688,508.534 277.5,511.5C 262.833,511.5 248.167,511.5 233.5,511.5C 137.074,499.879 66.907,450.879 23,364.5C 10.2992,336.688 2.4659,307.688 -0.5,277.5C -0.5,262.833 -0.5,248.167 -0.5,233.5C 11.1207,137.074 60.1207,66.907 146.5,23C 174.312,10.2992 203.312,2.4659 233.5,-0.5 Z M 235.5,40.5 C 328.012,36.3281 397.846,73.6614 445,152.5C 472.905,206.319 478.239,262.319 461,320.5C 436.833,390 390,436.833 320.5,461C 246.392,481.977 179.058,468.977 118.5,422C 55.6404,366.772 30.8071,297.605 44,214.5C 58.604,149.08 94.7707,99.5797 152.5,66C 178.714,52.3695 206.38,43.8695 235.5,40.5 Z" />
	</g>
	<g>
		<path style="opacity:0.963" class="check-mark" fill="current" d="M 353.5,167.5 C 372.367,170.905 378.533,181.572 372,199.5C 326.861,245.639 281.361,291.472 235.5,337C 226.57,344.26 217.237,344.926 207.5,339C 185.333,316.833 163.167,294.667 141,272.5C 133.578,261.497 134.745,251.331 144.5,242C 152.435,237.383 160.435,237.383 168.5,242C 185.667,259.167 202.833,276.333 220,293.5C 260.167,253.333 300.333,213.167 340.5,173C 344.474,170.005 348.807,168.171 353.5,167.5 Z" />
	</g>
</svg>
