<svg xmlns="http://www.w3.org/2000/svg" version="1.1" viewBox="0 0 512 512" width="512px" height="512px" style="shape-rendering:geometricPrecision; text-rendering:geometricPrecision; image-rendering:optimizeQuality; fill-rule:evenodd; clip-rule:evenodd" xmlns:xlink="http://www.w3.org/1999/xlink">
	<g>
		<path style="opacity:0.977" fill="current" d="M 194.5,-0.5 C 235.167,-0.5 275.833,-0.5 316.5,-0.5C 316.5,14.1667 316.5,28.8333 316.5,43.5C 361.167,43.5 405.833,43.5 450.5,43.5C 450.5,62.5 450.5,81.5 450.5,100.5C 320.5,100.5 190.5,100.5 60.5,100.5C 60.5,81.5 60.5,62.5 60.5,43.5C 105.167,43.5 149.833,43.5 194.5,43.5C 194.5,28.8333 194.5,14.1667 194.5,-0.5 Z M 229.5,33.5 C 246.833,33.5 264.167,33.5 281.5,33.5C 281.5,36.8333 281.5,40.1667 281.5,43.5C 264.167,43.5 246.833,43.5 229.5,43.5C 229.5,40.1667 229.5,36.8333 229.5,33.5 Z" />
	</g>
	<g>
		<path style="opacity:0.982" fill="current" d="M 406.5,511.5 C 305.833,511.5 205.167,511.5 104.5,511.5C 96.6502,385.874 88.9836,260.207 81.5,134.5C 197.5,133.167 313.5,133.167 429.5,134.5C 422.016,260.207 414.35,385.874 406.5,511.5 Z M 181.5,179.5 C 182.833,179.5 184.167,179.5 185.5,179.5C 190.333,272.492 195,365.492 199.5,458.5C 188.92,458.767 178.42,459.433 168,460.5C 162.601,367.528 157.768,274.528 153.5,181.5C 163.006,181.143 172.34,180.476 181.5,179.5 Z M 325.5,179.5 C 336.148,180.341 346.814,181.008 357.5,181.5C 353.232,274.528 348.399,367.528 343,460.5C 332.58,459.433 322.08,458.767 311.5,458.5C 316,365.492 320.667,272.492 325.5,179.5 Z M 239.5,180.5 C 250.167,180.5 260.833,180.5 271.5,180.5C 271.5,273.5 271.5,366.5 271.5,459.5C 260.833,459.5 250.167,459.5 239.5,459.5C 239.5,366.5 239.5,273.5 239.5,180.5 Z" />
	</g>
</svg>
